<svg width="28" height="28" viewBox="0 0 28 28" fill="none" xmlns="http://www.w3.org/2000/svg">
<path d="M16.9412 5.6001C18.058 5.6001 18.6168 5.60019 19.1219 5.75635C19.5689 5.89458 19.9836 6.12107 20.3416 6.42236C20.746 6.76276 21.0483 7.23215 21.6521 8.17139L23.2 10.5806C23.6631 11.301 23.8949 11.6615 23.9578 12.0405C24.0131 12.3747 23.9765 12.7179 23.8514 13.0327C23.7094 13.3897 23.4061 13.6928 22.8006 14.2983L15.6961 21.4028C15.1022 21.9967 14.8051 22.2944 14.4627 22.4058C14.1614 22.5036 13.8362 22.5036 13.535 22.4058C13.1925 22.2945 12.8955 21.9968 12.3016 21.4028L5.19609 14.2983C4.59064 13.6929 4.28827 13.3897 4.14628 13.0327C4.02114 12.7179 3.9845 12.3747 4.03984 12.0405C4.10268 11.6615 4.3337 11.3007 4.79667 10.5806L6.3455 8.17139C6.94926 7.23221 7.25161 6.76275 7.65605 6.42236C8.01406 6.12107 8.42873 5.89456 8.87577 5.75635C9.38087 5.60019 9.93965 5.6001 11.0564 5.6001H16.9412ZM16.8113 8.30713C16.6985 8.00252 16.2679 8.00252 16.1551 8.30713L15.3758 10.4126C15.329 10.5391 15.2288 10.6392 15.1023 10.686L12.9969 11.4653C12.6926 11.5783 12.6925 12.0088 12.9969 12.1216L15.1023 12.9009C15.2287 12.9477 15.329 13.047 15.3758 13.1733L16.1551 15.2788C16.2678 15.5835 16.6986 15.5835 16.8113 15.2788L17.5906 13.1733C17.6374 13.0471 17.7369 12.9477 17.8631 12.9009L19.9695 12.1216C20.2738 12.0087 20.2737 11.5783 19.9695 11.4653L17.8631 10.686C17.7368 10.6392 17.6374 10.5389 17.5906 10.4126L16.8113 8.30713Z" fill="white"/>
</svg>
