<svg width="393" height="546" fill="none" xmlns="http://www.w3.org/2000/svg"><path opacity=".1" d="M214.447 0l-16.188 241.522-.232 3.448 1.525-3.102L318.385 0h46.418l-163 243.168-1.925 2.871 2.872-1.925L393 116.587v36.945l-188.95 92.834-3.103 1.524 3.449-.231L393 235.018V262.9l-188.604-12.641-3.45-.232 3.103 1.525L393 344.386v36.945L202.749 253.803l-2.872-1.925 1.926 2.872L393.01 540v6h-51.003L199.551 256.05l-1.525-3.103.232 3.449L217.669 546h-41.422l19.411-289.604.231-3.45-1.524 3.103L51.908 546H0v-4.65c64.038-95.533 128.077-191.067 192.114-286.601l1.924-2.871-2.87 1.925L0 381.945v-37.11l189.868-93.284 3.102-1.525-3.449.232L0 262.961v-28.006l189.521 12.703 3.449.231-3.102-1.524L0 153.08v-37.109a17696197.258 17696197.258 0 0 0 194.038 130.067l-1.924-2.87L29.115 0h46.419l118.832 241.868 1.524 3.102-.231-3.448L179.471 0h34.976z" fill="url(#paint0_radial_3891_39770)"/><path opacity=".1" d="M198.433 246.404L393 30.685v42.286L199.515 247.483 393 184.798v22.947l-193.092 41.214L393 290.173v22.947l-193.487-62.687L393.058 425v42.298L198.433 251.514 293.841 546H259.73l-62.772-294.092L134.186 546h-34.111l95.408-294.487L0 468.25v-42.476l194.405-175.342L0 313.416v-23.048l194.009-41.411L.001 207.548V184.5l194.404 62.983L.301 72.413V30l195.182 216.403L115.654 0h28.796l52.509 246.008L249.468 0h28.796l-79.831 246.404z" fill="url(#paint1_radial_3891_39770)"/><defs><radialGradient id="paint0_radial_3891_39770" cx="0" cy="0" r="1" gradientUnits="userSpaceOnUse" gradientTransform="matrix(0 274.608 -198.824 0 196.959 269.668)"><stop stop-color="#9ECDFF"/><stop offset="1" stop-color="#9ECDFF" stop-opacity="0"/></radialGradient><radialGradient id="paint1_radial_3891_39770" cx="0" cy="0" r="1" gradientUnits="userSpaceOnUse" gradientTransform="matrix(0 274.714 -198.93 0 196.958 268.893)"><stop stop-color="#8697FF"/><stop offset="1" stop-color="#8697FF" stop-opacity="0"/></radialGradient></defs></svg>