<svg width="28" height="28" viewBox="0 0 28 28" fill="none" xmlns="http://www.w3.org/2000/svg">
<path d="M16.9423 6.02112C18.0591 6.02112 18.6178 6.02121 19.1229 6.17737C19.5699 6.3156 19.9847 6.54211 20.3427 6.84338C20.7471 7.18379 21.0494 7.65319 21.6532 8.59241L23.2011 11.0016C23.6642 11.722 23.896 12.0825 23.9589 12.4615C24.0142 12.7957 23.9776 13.1389 23.8524 13.4537C23.7105 13.8108 23.4072 14.1138 22.8016 14.7194L15.6972 21.8239C15.1031 22.4179 14.8053 22.7155 14.4628 22.8268C14.1617 22.9245 13.8371 22.9246 13.536 22.8268C13.1935 22.7155 12.8967 22.4179 12.3026 21.8239L5.19716 14.7194C4.59171 14.1139 4.28935 13.8107 4.14735 13.4537C4.0222 13.1389 3.98557 12.7958 4.04091 12.4615C4.10375 12.0825 4.33475 11.7218 4.79774 11.0016L6.34657 8.59241C6.95031 7.65326 7.25269 7.18377 7.65712 6.84338C8.01512 6.54212 8.42982 6.31557 8.87684 6.17737C9.38185 6.02126 9.94012 6.02112 11.0565 6.02112H16.9423ZM15.3016 11.0319L12.1102 12.2135L15.3016 13.3942L16.4833 16.5865L17.664 13.3942L20.8563 12.2135L17.664 11.0319L16.4833 7.84045L15.3016 11.0319Z" fill="white"/>
</svg>
