<svg width="14" height="22" viewBox="0 0 14 22" fill="none" xmlns="http://www.w3.org/2000/svg">
<path d="M7 4.78955C7.26009 4.78955 7.47314 4.87256 7.63916 5.03857C7.80518 5.20459 7.88818 5.42318 7.88818 5.69434V13.1401L7.78857 15.4976L7.25732 15.1987L9.40723 12.7417L10.6855 11.48C10.763 11.4025 10.8543 11.3389 10.9595 11.2891C11.0701 11.2393 11.1891 11.2144 11.3164 11.2144C11.5599 11.2144 11.7619 11.2974 11.9224 11.4634C12.0828 11.6239 12.1631 11.8286 12.1631 12.0776C12.1631 12.3101 12.0718 12.5231 11.8892 12.7168L7.65576 16.9585C7.47868 17.1411 7.26009 17.2324 7 17.2324C6.73991 17.2324 6.52132 17.1411 6.34424 16.9585L2.11084 12.7168C1.92822 12.5231 1.83691 12.3101 1.83691 12.0776C1.83691 11.8286 1.91715 11.6239 2.07764 11.4634C2.23812 11.2974 2.4401 11.2144 2.68359 11.2144C2.81087 11.2144 2.92708 11.2393 3.03223 11.2891C3.1429 11.3389 3.23698 11.4025 3.31445 11.48L4.58447 12.7417L6.73438 15.1987L6.21143 15.4976L6.11182 13.1401V5.69434C6.11182 5.42318 6.19206 5.20459 6.35254 5.03857C6.51855 4.87256 6.73438 4.78955 7 4.78955Z" fill="black"/>
</svg>
