<svg width="14" height="22" viewBox="0 0 14 22" fill="none" xmlns="http://www.w3.org/2000/svg">
<path d="M7 17.2324C6.73438 17.2324 6.51855 17.1494 6.35254 16.9834C6.19206 16.8174 6.11182 16.5988 6.11182 16.3276V8.88184L6.21143 6.52441L6.73438 6.82324L4.58447 9.28027L3.31445 10.542C3.23698 10.6195 3.1429 10.6831 3.03223 10.7329C2.92708 10.7827 2.81087 10.8076 2.68359 10.8076C2.4401 10.8076 2.23812 10.7274 2.07764 10.5669C1.91715 10.4009 1.83691 10.1934 1.83691 9.94434C1.83691 9.71191 1.92822 9.49886 2.11084 9.30518L6.34424 5.06348C6.52132 4.88086 6.73991 4.78955 7 4.78955C7.26009 4.78955 7.47868 4.88086 7.65576 5.06348L11.8892 9.30518C12.0718 9.49886 12.1631 9.71191 12.1631 9.94434C12.1631 10.1934 12.0828 10.4009 11.9224 10.5669C11.7619 10.7274 11.5599 10.8076 11.3164 10.8076C11.1891 10.8076 11.0701 10.7827 10.9595 10.7329C10.8543 10.6831 10.763 10.6195 10.6855 10.542L9.40723 9.28027L7.25732 6.82324L7.78857 6.52441L7.88818 8.88184V16.3276C7.88818 16.5988 7.80518 16.8174 7.63916 16.9834C7.47314 17.1494 7.26009 17.2324 7 17.2324Z" fill="black"/>
</svg>
